<svg xmlns="http://www.w3.org/2000/svg" width="24" height="18" viewBox="0 0 24 18">
  <g id="Layer_2" data-name="Layer 2" transform="translate(-3.353 -8.353)">
    <g id="email" transform="translate(3.353 8.353)">
      <path id="パス_18" data-name="パス 18" d="M22.4,4H5.6A3.493,3.493,0,0,0,2,7.375v11.25A3.493,3.493,0,0,0,5.6,22H22.4A3.493,3.493,0,0,0,26,18.625V7.375A3.493,3.493,0,0,0,22.4,4Zm-.8,2.25L14,11.594,6.4,6.25Zm.8,13.5H5.6a1.164,1.164,0,0,1-1.2-1.125V7.656L13.28,13.9a1.265,1.265,0,0,0,1.44,0L23.6,7.656V18.625A1.164,1.164,0,0,1,22.4,19.75Z" transform="translate(-2 -4)" fill="#333"/>
    </g>
  </g>
</svg>
